HIERARCHY
ROOT Hips
{
	OFFSET -0.001795 -0.223333 0.028219
	CHANNELS 6 Xposition Yposition Zposition Zrotation Yrotation Xrotation 
	JOINT LeftUpLeg
	{
		OFFSET 0.069520 -0.091406 -0.006815
		CHANNELS 3 Zrotation Yrotation Xrotation
		JOINT LeftLeg
		{
			OFFSET 0.034277 -0.375199 -0.004496
			CHANNELS 3 Zrotation Yrotation Xrotation
			JOINT LeftFoot
			{
				OFFSET -0.013596 -0.397961 -0.043693
				CHANNELS 3 Zrotation Yrotation Xrotation
				JOINT LeftToe
				{
					OFFSET 0.026358 -0.055791 0.119288
					CHANNELS 3 Zrotation Yrotation Xrotation
					End Site
					{
						OFFSET 0.000000 0.000000 0.000000
					}
				}
			}
		}
	}
	JOINT RightUpLeg
	{
		OFFSET -0.067670 -0.090522 -0.004320
		CHANNELS 3 Zrotation Yrotation Xrotation
		JOINT RightLeg
		{
			OFFSET -0.038290 -0.382569 -0.008850
			CHANNELS 3 Zrotation Yrotation Xrotation
			JOINT RightFoot
			{
				OFFSET 0.015774 -0.398415 -0.042312
				CHANNELS 3 Zrotation Yrotation Xrotation
				JOINT RightToe
				{
					OFFSET -0.025372 -0.048144 0.123348
					CHANNELS 3 Zrotation Yrotation Xrotation
					End Site
					{
						OFFSET 0.000000 0.000000 0.000000
					}
				}
			}
		}
	}
	JOINT Spine
	{
		OFFSET -0.002533 0.108963 -0.026696
		CHANNELS 3 Zrotation Yrotation Xrotation
		JOINT Spine1
		{
			OFFSET 0.005487 0.135180 0.001092
			CHANNELS 3 Zrotation Yrotation Xrotation
			JOINT Spine2
			{
				OFFSET 0.001457 0.052922 0.025425
				CHANNELS 3 Zrotation Yrotation Xrotation
				JOINT Neck
				{
					OFFSET -0.002778 0.213870 -0.042857
					CHANNELS 3 Zrotation Yrotation Xrotation
					JOINT Head
					{
						OFFSET 0.005152 0.064970 0.051349
						CHANNELS 3 Zrotation Yrotation Xrotation
						End Site
						{
							OFFSET 0.000000 0.000000 0.000000
						}
					}
				}
				JOINT LeftShoulder
				{
					OFFSET 0.078845 0.121749 -0.034090
					CHANNELS 3 Zrotation Yrotation Xrotation
					JOINT LeftArm
					{
						OFFSET 0.090977 0.030469 -0.008868
						CHANNELS 3 Zrotation Yrotation Xrotation
						JOINT LeftForeArm
						{
							OFFSET 0.259612 -0.012772 -0.027456
							CHANNELS 3 Zrotation Yrotation Xrotation
							JOINT LeftHand
							{
								OFFSET 0.249234 0.008986 -0.001171
								CHANNELS 3 Zrotation Yrotation Xrotation
								End Site
								{
									OFFSET 0.000000 0.000000 0.000000
								}
							}
						}
					}
				}
				JOINT RightShoulder
				{
					OFFSET -0.081759 0.118833 -0.038615
					CHANNELS 3 Zrotation Yrotation Xrotation
					JOINT RightArm
					{
						OFFSET -0.096012 0.032551 -0.009143
						CHANNELS 3 Zrotation Yrotation Xrotation
						JOINT RightForeArm
						{
							OFFSET -0.253742 -0.013329 -0.021401
							CHANNELS 3 Zrotation Yrotation Xrotation
							JOINT RightHand
							{
								OFFSET -0.255298 0.007772 -0.005559
								CHANNELS 3 Zrotation Yrotation Xrotation
								End Site
								{
									OFFSET 0.000000 0.000000 0.000000
								}
							}
						}
					}
				}
			}
		}
	}
}
MOTION
Frames: 11
Frame Time: 0.050000
0.015448 0.585048 0.086970 -2.495774 -3.432370 75.293300 4.956811 -1.711975 -13.034762 -1.641212 0.103765 4.915281 3.908475 11.028179 23.329908 0.000000 0.000000 0.000000 2.935345 1.449512 -17.705733 -0.337472 0.502103 9.825642 3.652108 6.690107 3.760044 0.000000 0.000000 0.000000 6.351531 -1.757759 -1.991084 0.969335 0.160284 -15.823858 4.116338 1.030224 14.225326 10.095272 -1.677795 -34.526817 0.000000 0.000000 0.000000 -9.803278 -2.541132 1.174257 -46.087225 -8.582825 -1.580341 -145.310944 -50.223038 128.593503 0.000000 0.000000 0.000000 -3.459829 -1.039884 -0.054351 49.318166 -2.193928 -4.935419 174.534682 41.539816 177.181421 0.000000 0.000000 0.000000 
0.013298 0.581162 0.089474 -2.409805 -2.951020 76.485435 4.971282 -1.763898 -13.633295 -1.494176 0.080281 6.025463 3.923509 11.050191 22.848219 0.000000 0.000000 0.000000 3.933905 1.399449 -18.366339 -0.947916 0.650506 11.034903 3.454343 6.258848 3.698104 0.000000 0.000000 0.000000 6.786265 -1.935585 -1.982017 0.587291 0.225773 -15.610298 4.262145 1.166409 14.383712 9.493043 -1.259775 -35.940773 0.000000 0.000000 0.000000 -6.780834 -1.964270 0.877093 -47.503160 -9.869962 -0.969598 -149.429756 -51.104848 137.635697 0.000000 0.000000 0.000000 -6.079418 -1.902424 0.009413 51.159535 -0.774867 -4.639541 175.808449 41.923180 -178.233464 0.000000 0.000000 0.000000 
0.012005 0.578635 0.091565 -2.438854 -2.607074 77.629520 4.835017 -1.778387 -14.062925 -0.917127 -0.002056 6.898240 3.262223 10.214232 23.036104 0.000000 0.000000 0.000000 4.701802 1.390097 -18.999149 -1.647599 0.804874 11.876698 3.654106 6.100805 4.608694 0.000000 0.000000 0.000000 7.100641 -2.073793 -1.864473 0.498216 0.242534 -15.811839 4.089519 1.109493 14.494544 8.862518 -0.898343 -37.119922 0.000000 0.000000 0.000000 -3.397522 -0.807248 0.386376 -48.954579 -11.489836 -0.154429 -153.213530 -51.908935 146.411790 0.000000 0.000000 0.000000 -8.194412 -2.430964 0.144890 52.533890 1.372981 -3.958536 177.153579 40.812320 -173.313376 0.000000 0.000000 0.000000 
0.011610 0.575618 0.092999 -2.328279 -2.166850 78.483249 4.645331 -1.775651 -13.886184 -0.688926 -0.042056 7.614390 3.043697 9.868975 22.246465 0.000000 0.000000 0.000000 5.439615 1.308929 -19.151490 -1.975634 0.919864 12.836288 3.228972 4.685388 5.198240 0.000000 0.000000 0.000000 7.541206 -2.250086 -1.759011 0.263467 0.282042 -15.722763 4.235741 1.399349 14.778645 8.060145 -0.408289 -38.952805 0.000000 0.000000 0.000000 -0.164771 -0.577221 0.349647 -50.393609 -14.511034 1.229458 -158.252516 -53.918415 158.129993 0.000000 0.000000 0.000000 -10.956189 -3.549807 0.191693 53.696012 3.907660 -3.032955 178.557941 40.421497 -167.556405 0.000000 0.000000 0.000000 
0.011948 0.575085 0.093653 -2.248068 -1.808641 79.160746 4.190958 -1.733713 -13.846733 -0.195287 -0.125652 8.371446 2.728632 9.425177 21.552499 0.000000 0.000000 0.000000 5.394892 1.282038 -19.080460 -1.922964 0.926203 13.165110 2.750819 4.295590 4.111236 0.000000 0.000000 0.000000 7.651489 -2.298009 -1.847310 0.420411 0.243253 -15.603897 4.375968 1.427266 14.986766 7.105358 -0.020656 -39.971307 0.000000 0.000000 0.000000 1.959364 -0.369833 0.339428 -51.420404 -18.524816 3.080401 -163.802008 -55.602844 170.267544 0.000000 0.000000 0.000000 -13.129752 -3.612834 0.474711 54.444213 6.509199 -1.966686 -179.424709 39.367582 -160.061397 0.000000 0.000000 0.000000 
0.012391 0.574031 0.093912 -2.125743 -1.455227 79.664906 3.711681 -1.672755 -13.492503 0.539466 -0.253987 9.273114 2.379060 8.739743 19.656539 0.000000 0.000000 0.000000 5.874869 1.111914 -18.465611 -2.114177 0.983953 13.595382 2.369067 3.535693 3.861101 0.000000 0.000000 0.000000 7.755833 -2.373522 -1.634490 0.384373 0.229519 -14.882360 4.345723 1.107001 14.865185 6.033878 0.309131 -40.570310 0.000000 0.000000 0.000000 4.771093 -0.765117 0.635516 -53.009916 -22.836380 5.413917 -171.885918 -58.581683 -173.385148 0.000000 0.000000 0.000000 -15.415503 -4.152032 0.682768 54.373138 8.675003 -1.111094 -177.663770 38.713751 -153.680762 0.000000 0.000000 0.000000 
0.012427 0.573916 0.094194 -1.855954 -1.014832 80.447707 3.299976 -1.633868 -13.491558 1.502898 -0.414017 9.482749 1.800209 8.129006 20.348206 0.000000 0.000000 0.000000 5.928077 0.962516 -17.739831 -2.198788 0.971821 13.385470 2.433736 3.874985 3.597716 0.000000 0.000000 0.000000 7.794242 -2.398521 -1.762940 0.553052 0.190678 -14.862103 4.093464 0.440274 15.347970 5.669209 0.464064 -41.508429 0.000000 0.000000 0.000000 7.627366 -0.212316 0.556194 -55.355139 -27.999143 8.724445 177.529658 -60.711523 -154.122013 0.000000 0.000000 0.000000 -17.413837 -4.759194 0.867032 54.818624 10.289179 -0.544564 -176.493536 37.788193 -149.025364 0.000000 0.000000 0.000000 
0.011777 0.573833 0.094969 -1.728893 -0.687861 81.385594 3.218503 -1.642986 -13.633890 2.058096 -0.485370 8.994384 1.554522 7.886233 20.695967 0.000000 0.000000 0.000000 6.000508 0.852908 -17.269328 -2.347442 0.989581 13.402158 2.317811 4.289589 2.527116 0.000000 0.000000 0.000000 7.457236 -2.290262 -2.020247 0.589947 0.183571 -14.725238 3.968489 -0.583873 15.534488 4.804993 0.630336 -41.662044 0.000000 0.000000 0.000000 9.237720 0.445061 0.401170 -55.866648 -31.253156 10.884470 167.504841 -60.273900 -136.063259 0.000000 0.000000 0.000000 -18.841561 -5.477888 1.020513 55.809113 10.680743 -0.579186 -175.659537 37.082226 -146.195506 0.000000 0.000000 0.000000 
0.010392 0.574601 0.096397 -1.656006 -0.497299 82.278825 3.366102 -1.678730 -13.809529 2.348395 -0.493484 8.009805 1.437393 7.834229 21.242958 0.000000 0.000000 0.000000 6.227458 0.732556 -16.786487 -2.568190 0.976694 12.725597 2.822595 4.132164 4.639536 0.000000 0.000000 0.000000 7.100796 -2.189545 -2.091916 0.573203 0.199376 -14.996839 3.691507 -1.430742 16.054542 4.326647 0.734615 -42.053607 0.000000 0.000000 0.000000 10.493048 0.373061 0.478630 -56.428705 -34.132463 12.939809 158.658527 -60.846266 -121.972914 0.000000 0.000000 0.000000 -19.504712 -6.030556 1.066973 56.821261 10.041350 -1.061346 -175.501180 36.964779 -145.934906 0.000000 0.000000 0.000000 
0.008473 0.576374 0.098232 -1.555179 -0.341385 82.936908 3.872289 -1.770452 -13.888517 2.065961 -0.409075 6.761609 1.758586 8.003967 19.875808 0.000000 0.000000 0.000000 6.324610 0.633872 -16.394818 -2.446071 0.865599 11.429909 2.576000 3.546379 4.650861 0.000000 0.000000 0.000000 6.776259 -2.103482 -2.209185 0.435780 0.229369 -14.736033 3.369267 -2.728400 15.945612 3.867183 0.726068 -41.631200 0.000000 0.000000 0.000000 9.962506 0.033780 0.591820 -56.238591 -35.168441 13.735816 151.085652 -62.994463 -112.364427 0.000000 0.000000 0.000000 -19.609854 -6.018260 1.244722 57.195808 9.228919 -1.726108 -175.325160 37.485022 -147.003147 0.000000 0.000000 0.000000 
0.006585 0.577846 0.099723 -1.876763 -0.227632 83.522439 4.354330 -1.842875 -13.850856 1.775521 -0.338302 5.774723 1.994230 8.324202 20.253922 0.000000 0.000000 0.000000 6.312488 0.567918 -16.019983 -1.913478 0.672888 9.560771 2.369488 1.933953 6.604449 0.000000 0.000000 0.000000 6.700998 -2.106428 -2.087311 0.065103 0.321402 -15.051494 3.240504 -3.375465 16.444820 3.662293 0.724979 -41.712095 0.000000 0.000000 0.000000 10.360023 0.248611 0.500262 -57.513199 -34.811228 14.281542 145.300832 -66.507024 -108.229082 0.000000 0.000000 0.000000 -19.896838 -6.257013 1.336640 57.196799 8.470361 -2.331019 -174.771187 37.750040 -146.174375 0.000000 0.000000 0.000000 
